<?xml version="1.0" encoding="utf-8"?>
<!-- Generator: Adobe Illustrator 14.0.0, SVG Export Plug-In . SVG Version: 6.00 Build 43363)  -->
<!DOCTYPE svg PUBLIC "-//W3C//DTD SVG 1.1//EN" "http://www.w3.org/Graphics/SVG/1.1/DTD/svg11.dtd">
<svg version="1.1" id="Layer_1" xmlns="http://www.w3.org/2000/svg" xmlns:xlink="http://www.w3.org/1999/xlink" x="0px" y="0px"
	 width="100px" height="43.125px" viewBox="0 0 100 43.125" enable-background="new 0 0 100 43.125" xml:space="preserve">
<path fill="#DB0000" d="M10.319,29.08l0.322,0.528c-1.487,5.839-2.835,10.137-4.045,12.895H0.183
	c0.444-2.115,0.893-4.486,1.345-7.114c0.451-2.627,0.762-4.731,0.931-6.309H10.319z"/>
<path fill="#DB0000" d="M27.928,29.08l0.321,0.528c-1.486,5.839-2.835,10.137-4.045,12.895h-6.413
	c0.444-2.115,0.892-4.486,1.345-7.114c0.451-2.627,0.762-4.731,0.931-6.309H27.928z"/>
<path fill="#DB0000" d="M45.538,29.08l0.321,0.528c-1.486,5.839-2.835,10.137-4.045,12.895h-6.413
	c0.444-2.115,0.893-4.486,1.345-7.114c0.452-2.627,0.762-4.731,0.931-6.309H45.538z"/>
<path fill="#403BFF" d="M48.135,12.484c0-1.394,0.421-2.475,1.264-3.241c0.842-0.766,2.053-1.149,3.631-1.149
	c1.518,0,2.682,0.383,3.494,1.149c0.813,0.767,1.218,1.847,1.218,3.241c0,1.379-0.414,2.459-1.241,3.241
	c-0.828,0.782-1.984,1.172-3.471,1.172c-1.563,0-2.77-0.391-3.62-1.172C48.56,14.943,48.135,13.863,48.135,12.484z M48.135,30.641
	c0-1.409,0.417-2.497,1.252-3.264c0.835-0.766,2.049-1.149,3.643-1.149c1.518,0,2.682,0.383,3.494,1.149
	c0.813,0.767,1.218,1.854,1.218,3.264c0,1.379-0.417,2.456-1.252,3.23c-0.835,0.773-1.988,1.161-3.459,1.161
	c-1.517,0-2.711-0.383-3.585-1.149C48.572,33.117,48.135,32.036,48.135,30.641z"/>
<path fill="#38B41C" d="M61.034,18.07c1.762,0,3.145-0.341,4.148-1.022c1.003-0.682,1.505-1.644,1.505-2.885V8.324
	c0-2.129,0.375-3.723,1.126-4.781c0.75-1.057,1.973-1.827,3.666-2.31c1.693-0.482,4.034-0.724,7.021-0.724v6.413
	c-1.364,0.046-2.287,0.149-2.77,0.31c-0.483,0.161-0.87,0.41-1.161,0.747c-0.292,0.338-0.437,0.797-0.437,1.379v6.229
	c0,1.731-0.433,3.061-1.298,3.988c-0.866,0.927-2.272,1.528-4.218,1.804v0.276c1.961,0.307,3.371,0.912,4.229,1.815
	c0.857,0.904,1.287,2.184,1.287,3.838v6.344c0,0.597,0.162,1.064,0.483,1.401c0.322,0.337,0.75,0.587,1.288,0.748
	c0.536,0.161,1.402,0.264,2.597,0.31v6.39c-3.019,0-5.37-0.246-7.056-0.735c-1.686-0.491-2.9-1.269-3.643-2.333
	c-0.744-1.065-1.115-2.678-1.115-4.838v-5.7c0-1.226-0.514-2.184-1.54-2.873c-1.026-0.69-2.398-1.035-4.114-1.035V18.07z"/>
<path fill="#38B41C" d="M99.969,24.736c-1.701,0-3.064,0.345-4.091,1.035c-1.026,0.689-1.54,1.647-1.54,2.873v5.7
	c0,2.145-0.375,3.754-1.126,4.827c-0.751,1.072-1.969,1.854-3.654,2.345c-1.686,0.49-4.03,0.735-7.034,0.735v-6.39
	c1.655-0.061,2.796-0.287,3.425-0.678c0.628-0.391,0.942-0.984,0.942-1.781v-6.344c0-1.655,0.429-2.934,1.288-3.838
	c0.857-0.904,2.267-1.509,4.229-1.816v-0.276c-1.947-0.276-3.353-0.877-4.218-1.804c-0.866-0.927-1.299-2.256-1.299-3.988V9.107
	c0-0.598-0.149-1.062-0.448-1.391c-0.298-0.329-0.682-0.575-1.149-0.735c-0.467-0.161-1.39-0.264-2.77-0.31V0.258
	c3.003,0,5.348,0.241,7.034,0.724c1.685,0.482,2.903,1.252,3.654,2.31c0.75,1.058,1.126,2.651,1.126,4.781v5.838
	c0,1.241,0.498,2.203,1.494,2.884c0.996,0.682,2.375,1.023,4.137,1.023V24.736z"/>
</svg>
